<?xml version="1.0" standalone="no"?>
<!DOCTYPE svg PUBLIC "-//W3C//DTD SVG 20010904//EN"
 "http://www.w3.org/TR/2001/REC-SVG-20010904/DTD/svg10.dtd">
<svg version="1.0" xmlns="http://www.w3.org/2000/svg"
 width="840.000000pt" height="680.000000pt" viewBox="0 0 840.000000 680.000000"
 preserveAspectRatio="xMidYMid meet">
<metadata>
Created by potrace 1.16, written by Peter Selinger 2001-2019
</metadata>
<g transform="translate(0.000000,680.000000) scale(0.100000,-0.100000)"
fill="#408000" stroke="none">
<g>
<path d="M2830 5560 l0 -840 -840 0 -840 0 0 -1355 0 -1355 840 0 840 0 0
-805 0 -805 1325 0 1325 0 1 148 c2 531 17 1430 23 1440 5 9 120 12 464 12
251 0 643 3 870 7 l412 6 0 1352 0 1352 -547 6 c-302 4 -695 7 -874 7 l-326 0
-6 98 c-4 53 -7 270 -7 482 0 212 -3 544 -7 738 l-6 352 -1324 0 -1323 0 0
-840z m2056 674 l491 -6 6 -457 c4 -251 7 -624 7 -828 l0 -373 855 0 855 0 0
-1190 0 -1190 -855 0 -855 0 0 -357 c0 -197 -3 -557 -7 -801 l-6 -442 -1206 2
-1206 3 -6 565 c-3 311 -7 670 -8 798 l-1 232 -840 0 -840 0 0 1190 0 1190
840 0 840 0 0 840 0 841 723 -6 c397 -3 943 -8 1213 -11z"/>
<g>
<path d="M3106 6074 c-3 -9 -6 -384 -6 -835 l0 -819 -820 0 -820 0 0 -1038 0
-1039 806 -6 c470 -3 811 -10 816 -15 5 -5 11 -330 14 -778 3 -423 7 -779 10
-791 l4 -23 1065 0 1065 0 0 805 0 805 838 2 837 3 0 1035 0 1035 -837 3 -838
2 0 835 0 835 -1064 0 c-961 0 -1064 -2 -1070 -16z m1024 -799 c103 -42 189
-127 210 -210 23 -89 40 -121 73 -139 52 -30 67 -55 67 -114 0 -61 -24 -178
-50 -237 -39 -90 -77 -97 -151 -29 -64 60 -129 187 -129 251 0 38 6 50 46 93
44 47 45 50 34 84 -31 93 -119 167 -223 185 -210 36 -359 -100 -360 -329 -1
-121 26 -184 114 -273 103 -103 221 -151 548 -222 367 -79 513 -143 603 -261
60 -80 80 -142 86 -265 6 -136 -14 -229 -73 -347 -82 -163 -198 -276 -360
-353 -75 -35 -241 -87 -249 -78 -2 2 -6 44 -8 93 l-5 89 46 19 c147 63 187 95
260 204 110 163 135 380 58 495 -52 79 -217 155 -462 214 -175 42 -244 65
-340 113 -138 68 -260 173 -319 274 -86 147 -103 329 -45 485 17 44 39 75 94
131 76 75 142 114 240 139 70 18 237 11 295 -12z m477 -1337 c49 -64 60 -215
24 -328 -48 -152 -178 -303 -288 -336 -32 -10 -62 -22 -68 -26 -6 -6 -10 -123
-10 -314 0 -335 2 -324 -61 -324 -17 0 -46 3 -64 7 l-33 6 8 302 7 302 -72 7
c-96 9 -246 42 -326 72 -142 53 -230 105 -439 259 -197 145 -299 197 -450 229
-256 55 -296 70 -314 120 l-8 21 781 5 c429 3 899 6 1042 8 200 1 264 -1 271
-10z m1274 -7 c-23 -42 -95 -72 -246 -102 -126 -25 -174 -39 -256 -77 -104
-46 -228 -135 -348 -246 -39 -37 -43 -39 -37 -16 37 139 47 211 43 310 -2 58
-8 115 -12 128 l-7 22 436 0 c423 0 436 -1 427 -19z m-1817 -747 c3 -9 6 -54
6 -100 l0 -84 -40 -16 c-54 -22 -96 -73 -116 -140 -15 -52 -15 -59 3 -112 34
-104 139 -156 313 -155 164 1 260 57 260 153 0 51 -37 84 -93 85 -23 0 -52 -4
-63 -8 -20 -7 -22 -3 -28 38 -4 25 -4 54 -1 65 13 42 208 73 317 51 67 -14
113 -43 146 -91 21 -31 23 -44 20 -106 -8 -122 -76 -206 -223 -278 -154 -75
-372 -106 -505 -71 -88 22 -198 79 -259 132 -172 150 -153 420 40 571 86 66
209 103 223 66z m4 -424 c2 -64 2 -65 -31 -86 -85 -55 -114 72 -31 134 47 35
59 26 62 -48z m-145 -347 l66 -38 1 -50 c0 -54 26 -120 56 -147 39 -34 132
-68 262 -93 155 -31 232 -56 285 -92 32 -23 67 -68 67 -88 0 -13 -39 -3 -80
21 -67 39 -91 44 -265 54 -88 6 -185 15 -215 21 -120 25 -234 108 -286 210
-32 62 -39 161 -15 217 17 40 28 39 124 -15z m339 -56 c10 -16 10 -209 -1
-225 -6 -11 -20 -9 -72 8 -35 12 -70 26 -76 32 -12 10 -20 188 -9 199 9 9 151
-4 158 -14z m-47 -411 l50 -11 1 -72 c1 -86 17 -129 56 -149 15 -8 77 -22 136
-30 79 -12 125 -24 177 -50 58 -28 91 -36 196 -48 128 -15 184 -31 207 -58 14
-18 -168 -23 -1138 -34 -541 -7 -564 -6 -550 11 26 31 93 52 221 69 102 14
136 23 190 51 41 21 100 40 155 50 116 22 163 42 175 72 5 13 9 57 9 96 0 40
3 82 6 95 7 25 29 27 109 8z"/>
</g>
</g>
</g>
</svg>
